<?xml version="1.0" encoding="UTF-8"?>
<!DOCTYPE svg PUBLIC "-//W3C//DTD SVG 1.1//EN" "http://www.w3.org/Graphics/SVG/1.1/DTD/svg11.dtd">
<!-- Creator: CorelDRAW 2020 (64-Bit) -->
<svg xmlns="http://www.w3.org/2000/svg" xml:space="preserve" width="187.936mm" height="198.769mm" version="1.1" style="shape-rendering:geometricPrecision; text-rendering:geometricPrecision; image-rendering:optimizeQuality; fill-rule:evenodd; clip-rule:evenodd"
viewBox="0 0 18793.6 19876.9"
 xmlns:xlink="http://www.w3.org/1999/xlink"
 xmlns:xodm="http://www.corel.com/coreldraw/odm/2003">
 <defs>
  <style type="text/css">
   <![CDATA[
    .fil0 {fill:#76B24E}
   ]]>
  </style>
 </defs>
 <g id="Layer_x0020_1">
  <metadata id="CorelCorpID_0Corel-Layer"/>
  <g id="_2487667662528">
   <path class="fil0" d="M9402.47 12427.82c-137.54,-199.56 -203.02,-1066.48 -1268.03,-2106.05 -1406.6,-1373 -3858.2,-2184.09 -5796.05,-2692.95 -396.43,-104.1 -981.46,-265.38 -1395.31,-312.74 -95.07,133.04 -247.56,893.67 -242.97,980.02 930.37,166.5 1796.18,291.3 2711.12,509.37 2252.3,536.84 4509.31,1539.9 5804.48,3488.28 58.77,88.41 99.92,192.7 211.8,222 79.23,-53.64 484.48,-663.02 702.16,-908.1 253.54,-285.45 523.18,-558.94 833.71,-792.81 317.51,-239.16 557.48,-426.33 964.12,-662.23 1089.1,-631.82 2269.63,-1053.51 3506.52,-1349.65 870.26,-208.36 1803.43,-351.47 2722.99,-522.74l-234.43 -988.17c-551.91,78.55 -2133.88,525.24 -2717.76,703.7 -1546.91,472.79 -3353.19,1241.77 -4496.59,2313.6 -270.74,253.79 -537.98,563.07 -767.97,934.18 -310.75,501.42 -435.78,1040.94 -537.79,1184.29z"/>
   <path class="fil0" d="M700.97 11968.43c16.65,7.63 2.09,6.77 58.9,22.89 30.3,8.6 49.46,12.1 85.83,16.92l540.15 61.43c1505.69,185.61 3053.28,491.02 4443.81,1034.06 1250.27,488.26 2429.44,1186.91 3245.67,2208.81 78.37,98.11 278.27,387.21 377.2,426.8 329.65,-403.75 255.12,-406.76 702.7,-852.25 2739.91,-2727.09 7833.45,-2763.61 7960.59,-2901.98 84.96,-193.52 137.86,-807.76 143.79,-1061.22 -460.27,65.43 -2203.25,496.83 -2704.25,628.89 -879.07,231.73 -1707.4,500.88 -2529.64,825.71 -1088.31,429.94 -2379.08,1093.79 -3053.45,1975.55 -108.21,141.49 -238.55,339.08 -316.46,510.74 -45.2,99.58 -77.63,187.78 -115.19,307.97 -34.81,111.36 -55.78,250.96 -114.25,312.96 -200.58,-357.71 -75.51,-503.56 -553.13,-1122.46 -1355.63,-1756.6 -4790.47,-2628.3 -6927.11,-3139.66 -415.67,-99.48 -936.49,-228.18 -1375.19,-296.2l130.03 1041.04z"/>
   <path class="fil0" d="M541.87 10030.13c2013.71,345.58 3291.91,547.49 5212.16,1273.47 1231.43,465.55 2617.11,1234.51 3336.95,2316.34l224.11 377.44c47.49,87.15 29.69,84.89 112.42,122.33 49.1,-45.25 243.93,-408.7 307.61,-503.51 1156.64,-1722 3861.26,-2603 5815.65,-3065.7 676.24,-160.09 1339.86,-289.54 2020.29,-404.86l637.63 -112.73c204.53,-94.79 56.9,-648.56 53.8,-866.93 -500.86,23.04 -2200.83,467.86 -2767.18,620.82 -1782.28,481.35 -5130.29,1606.74 -5869.87,3447.41 -57.82,143.89 -167.49,541.9 -222.97,615.3 -155.83,-310.41 -118.31,-630.75 -513.36,-1153.74 -251.7,-333.2 -524.95,-602.71 -847.7,-854.36 -1637.95,-1277.09 -4616.34,-2107.97 -6736.89,-2552.03 -209.33,-43.83 -515.53,-127.28 -708.81,-138.83l-53.84 879.58z"/>
   <path class="fil0" d="M1979.87 4773.93l2232.79 732.97c748.42,284.09 1446.84,572.45 2093.59,909.62 976.39,509.02 1885.4,1129.93 2535.99,1946.18 224.06,281.11 478.39,799.94 585.27,911.21 228.51,-242.62 421.63,-1482.14 3097.22,-2856.24 1181.75,-606.91 2478.6,-1066.17 3770.85,-1460.13 158.88,-48.43 450.33,-119.74 572.99,-183.61 -33.22,-117.02 -495.96,-770.23 -583.45,-855.17 -235.63,26.14 -1848.09,683.95 -2157.24,824.2 -1546.51,701.59 -3433.45,1665.6 -4285.85,3147.96 -285.5,496.51 -349.05,917.03 -395.87,1002.83 -30.35,55.63 -18.35,36.88 -55.12,71.27 -219.9,-793.62 -459.93,-1332.13 -1040.46,-1912.64 -245.77,-245.76 -477.67,-471.72 -780.38,-696.52 -888.49,-659.8 -1784.12,-1156.44 -2845.86,-1610.43 -680.57,-290.99 -1412.93,-603.12 -2154.46,-814.13 -127.17,90.55 -508.47,660.44 -590.01,842.63z"/>
   <path class="fil0" d="M1302.7 14000.98c1727.63,133.1 3324.62,311.75 4933.27,948.36 983.44,389.19 2022.43,1001.38 2615.21,1813.7 228.82,313.56 384.98,631.52 541.13,929.79 51.64,-34.9 11.25,1.26 47.66,-41.61l230.6 -421.65c1681.23,-3109.87 7672.31,-3162.21 7849.14,-3259.07 147.39,-101.36 363.81,-862.68 401.9,-1102.39 -547.86,61.03 -2110.85,438.57 -2695.8,587.82 -1753.4,447.4 -4263.81,1308.96 -5326.23,2803.33 -338.19,475.68 -401.76,995.49 -497.11,1119.55 -68.35,-136.04 -134.35,-429.93 -198.13,-590.83 -913.11,-2303.1 -5300.51,-3320.33 -7574.39,-3785.9 -219.07,-44.85 -483.69,-115.35 -718.89,-135.77 49.7,319.17 269.91,841.36 391.64,1134.67z"/>
   <path class="fil0" d="M1151.67 6575.94c64.67,37.12 1110.72,236.43 1286.63,275.84 1887.63,422.92 4097.78,1174.23 5571.31,2368.46 300.12,243.23 542.28,482.56 789.29,787.39 183.38,226.32 473.78,790.09 668.21,916.26l-497.98 -1134.5c-202.94,-381.37 -451.71,-676.97 -701.65,-952.05 -1295.92,-1426.32 -3517.46,-2314.59 -5379.04,-2908.04 -213.78,-68.15 -416.3,-130.02 -630.05,-195.29 -174.71,-53.34 -503.13,-171.92 -664.59,-189.73 -149.59,157.78 -383.2,779.05 -442.13,1031.66z"/>
   <path class="fil0" d="M9502.59 10743.11c117.61,-112.84 407.65,-613.7 635.9,-878.18 2147.35,-2488.14 7314.23,-3167.55 7566.72,-3288.99l-414.41 -1032.29c-425.3,68.26 -2016.64,602.55 -2487.09,776.61 -1760.55,651.39 -3871.34,1690 -4844.95,3290.07 -108.56,178.42 -517.54,930.02 -456.17,1132.78z"/>
   <path class="fil0" d="M3028.15 15180.1c-369.16,-69.69 -883.74,-186.44 -1262.74,-215.86 23.07,132.67 188.19,394.92 254.53,495.24 383.37,579.61 162.31,385.34 990.64,513.13 1021.07,157.52 2050.47,371.79 2980.91,723.01 2999.65,1132.32 2968,2498.8 3296.58,2677.85 -4.88,-913.2 -545.75,-1613.4 -972.62,-2024.67 -1266.11,-1219.86 -3605.79,-1851.29 -5287.3,-2168.7z"/>
   <path class="fil0" d="M9566.72 19349.23c163.06,-79.21 218.87,-322.97 300.8,-472.23 83.96,-152.94 195.02,-313.13 302.56,-446.17 236.15,-292.16 462.22,-490.27 753.31,-722.95 502.82,-401.92 1244.01,-761.53 1937.3,-1014.71 743.78,-271.63 1521.74,-467.67 2357.05,-621.4l1274.25 -201.81c165.5,-63.37 558.89,-762.98 601.18,-900.65 -417.65,36.41 -921.84,139.86 -1311.62,215.16 -1213.78,234.51 -2315.46,522.15 -3421.08,1008.07 -1183.29,520.05 -2798.82,1561.44 -2793.75,3156.69z"/>
   <path class="fil0" d="M3071.4 3303.05c1751.95,623.92 4733.64,2046.11 5819.39,3559.24 150.36,209.55 405.55,651.42 560.08,786.35 -30.61,-165.35 -273.9,-769.13 -365.17,-955.09 -696.26,-1418.62 -2132.36,-2444.64 -3494.89,-3214.24 -267.77,-151.24 -1561.67,-863.13 -1793.85,-903.24 -168,159.6 -652.36,553.45 -725.56,726.98z"/>
   <path class="fil0" d="M9500.44 7479.15l547.07 -758.7c201.52,-245.31 419.36,-452.46 642.3,-659.58 393.75,-365.77 991.74,-771.58 1518.16,-1085.02 851.2,-506.81 1689.31,-901.42 2612.88,-1292.35 181.62,-76.88 839.54,-304.57 938.26,-386.21 -80.72,-112.81 -604.75,-711.36 -768.44,-692.48 -80.52,9.29 -869.82,412.14 -998.59,475.75 -1193.82,589.79 -2603.07,1505.31 -3455.72,2451.8 -359.76,399.34 -1067.62,1363.67 -1035.92,1946.79z"/>
   <path class="fil0" d="M4458.27 2095.96l1402.42 687.64c467.15,253.62 896.32,527.48 1287.9,815.19 597.9,439.31 1172.29,987.02 1567.45,1586.15 71.3,108.1 132.48,211.32 199.74,326.57 38.68,66.26 67.47,119.18 98.2,175.12 15.64,28.48 28.05,55.36 44.44,81.76l76.71 90.47c-36.72,-445.11 -506.96,-1230.35 -746.01,-1597.39 -585.47,-898.95 -1576.3,-1671.5 -2483.75,-2222.74 -831.55,-505.12 -722.6,-459.73 -1128.32,-213.94 -148.61,90.03 -226.87,141.18 -318.78,271.17z"/>
   <path class="fil0" d="M9751.88 5826.8c63.06,-156.6 285.27,-500.26 379.81,-649.19 808.45,-1273.6 2525.05,-2303.2 3919.08,-2914.33 123.17,-54 282.37,-100.69 333.23,-192.34 -36.22,-82.52 -220.37,-181.86 -327.58,-249.56 -405.05,-255.78 -248.83,-311.66 -1124.72,224.5 -459.37,281.21 -1008.71,650.32 -1352.65,975 -475.55,448.94 -693.14,621.04 -1107.64,1219.72 -194.52,280.94 -662.88,1082.1 -728.98,1472.9 -3.2,18.9 -5.1,38.11 -3.75,57.27 3.92,56.02 -1.97,25.72 13.2,56.03z"/>
   <path class="fil0" d="M9768.38 4432.21c63.63,-43.95 548.91,-838.04 636.62,-958.61 535.71,-736.41 1294.04,-1408.56 2038.71,-1940.45 108.81,-77.72 409.43,-267.11 468.05,-344.15 -232.98,-98.22 -465.38,-256.24 -589.01,-179.29 -362.14,225.41 -1059.81,887.28 -1326.13,1228.46 -252.31,323.25 -456.95,599.32 -696.1,1005.86 -131.3,223.18 -507.12,938.64 -532.14,1188.18z"/>
   <path class="fil0" d="M5945.28 1194.96c16.1,19.64 12.6,18.03 37.76,39.96l177.52 123.43c873.72,625 1606.42,1218.28 2263.03,2091.82 228.65,304.19 488.03,816.67 630.04,971.6 -40.9,-551.35 -863.25,-1773.36 -1202.26,-2176.29 -249.93,-297.04 -992.14,-1036.05 -1314.3,-1240.36 -108.54,-68.83 -545.86,154.82 -591.79,189.84z"/>
   <path class="fil0" d="M9841.91 3083.03c68.94,-50.8 636.45,-1090.04 753.86,-1270.79 324.66,-499.84 474.76,-650.57 849.1,-1027.53 60.06,-60.47 31.58,-15.73 65.95,-90.31 -62.25,-37.8 -323.43,-132.42 -403.43,-119.26 -76.22,12.54 -207.67,186.85 -262.31,260.27 -328.26,441.1 -968.55,1778.43 -1003.17,2247.62z"/>
   <path class="fil0" d="M7320.37 674.35l473.31 527.34c527.97,632.87 691.91,991.4 1067.41,1683.89l79.72 124.71c24.53,28.18 17.49,20.43 41.93,40.97 -14,-311.52 -356.33,-1073.01 -489.69,-1349.81 -146.03,-303.11 -286.24,-578.06 -489.55,-859.96 -68.88,-95.51 -150.62,-179.65 -201.67,-267.25l-481.46 100.11z"/>
  </g>
 </g>
</svg>
